<?xml version="1.0" encoding="utf-8"?>
<!-- Generator: Adobe Illustrator 21.0.2, SVG Export Plug-In . SVG Version: 6.00 Build 0)  -->
<svg version="1.1" id="Capa_1" xmlns="http://www.w3.org/2000/svg" xmlns:xlink="http://www.w3.org/1999/xlink" x="0px" y="0px"
	 viewBox="0 0 49.7 49.7" style="enable-background:new 0 0 49.7 49.7;" xml:space="preserve">
<style type="text/css">
	.st0{display:none;}
	.st1{display:inline;}
</style>
<g class="st0">
	<g class="st1">
		<g>
			<path d="M24.1,20.5c-2.3-4.1-4.8-7.4-4.9-7.7c-3.7,1.8-6.5,5.2-7.4,9.3C12.1,22.1,17.7,22.2,24.1,20.5z"/>
			<path d="M21.6,11.9C21.6,11.9,21.6,11.9,21.6,11.9C21.6,11.9,21.6,11.9,21.6,11.9L21.6,11.9z"/>
			<path d="M33.6,14.8c-2.3-2.1-5.4-3.3-8.8-3.3c-1.1,0-2.1,0.1-3.1,0.4c0.2,0.3,2.7,3.6,5,7.8C31.7,17.8,33.6,14.9,33.6,14.8z"/>
			<path d="M27.1,27c-7.9,2.7-10.4,8.3-10.4,8.3c2.3,1.8,5.1,2.8,8.2,2.8c1.8,0,3.6-0.4,5.2-1.1C29.8,35.9,29.1,31.8,27.1,27
				C27.2,27,27.1,27,27.1,27z"/>
			<path d="M25.7,24.9c0.2-0.1,0.4-0.1,0.5-0.2c-0.3-0.8-0.7-1.5-1.1-2.3c-6.9,2.1-13.4,1.9-13.7,1.9c0,0.1,0,0.3,0,0.4
				c0,3.4,1.3,6.5,3.4,8.9l0,0C14.9,33.7,18.6,27.3,25.7,24.9z"/>
			<path d="M24.8,0C11.1,0,0,11.1,0,24.8c0,13.7,11.1,24.8,24.8,24.8c13.7,0,24.8-11.1,24.8-24.8C49.7,11.1,38.5,0,24.8,0z M40.1,28
				c-0.2,1-0.5,2-0.9,2.9c-0.4,0.9-0.9,1.8-1.4,2.6c-0.6,0.8-1.2,1.6-1.9,2.3c-0.7,0.7-1.5,1.3-2.3,1.9c-0.8,0.6-1.7,1-2.6,1.4
				C30,39.6,29,39.9,28,40.1c-1,0.2-2.1,0.3-3.1,0.3c-1.1,0-2.1-0.1-3.1-0.3c-1-0.2-2-0.5-2.9-0.9c-0.9-0.4-1.8-0.9-2.6-1.4
				c-0.8-0.6-1.6-1.2-2.3-1.9c-0.7-0.7-1.3-1.5-1.9-2.3c-0.6-0.8-1-1.7-1.4-2.6C10.1,30,9.8,29,9.5,28c-0.2-1-0.3-2.1-0.3-3.1
				c0-1.1,0.1-2.1,0.3-3.1c0.2-1,0.5-2,0.9-2.9c0.4-0.9,0.9-1.8,1.4-2.6c0.6-0.8,1.2-1.6,1.9-2.3c0.7-0.7,1.5-1.3,2.3-1.9
				c0.8-0.6,1.7-1,2.6-1.4c0.9-0.4,1.9-0.7,2.9-0.9c1-0.2,2.1-0.3,3.1-0.3c1.1,0,2.1,0.1,3.1,0.3c1,0.2,2,0.5,2.9,0.9
				c0.9,0.4,1.8,0.9,2.6,1.4c0.8,0.6,1.6,1.2,2.3,1.9c0.7,0.7,1.3,1.5,1.9,2.3c0.6,0.8,1,1.7,1.4,2.6c0.4,0.9,0.7,1.9,0.9,2.9
				c0.2,1,0.3,2.1,0.3,3.1C40.4,25.9,40.3,26.9,40.1,28z"/>
			<path d="M29.7,26.4c1.7,4.8,2.5,8.7,2.6,9.5c3-2,5.1-5.2,5.7-8.9C37.7,26.9,34,25.7,29.7,26.4z"/>
			<path d="M27.7,21.6c0.3,0.6,0.6,1.3,0.9,1.9c0.1,0.2,0.2,0.5,0.3,0.7c4.6-0.6,9.1,0.4,9.3,0.4c0-3.2-1.2-6.1-3-8.3
				C35.1,16.4,33,19.5,27.7,21.6z"/>
		</g>
	</g>
</g>
<path d="M-0.2-0.2v50h50v-50H-0.2z M24.8,45.9c-11.6,0-21.1-9.4-21.1-21.1c0-11.6,9.4-21.1,21.1-21.1c11.6,0,21.1,9.4,21.1,21.1
	C45.9,36.5,36.5,45.9,24.8,45.9z"/>
<g>
	<g>
		<g>
			<path d="M20.9,20.7c0-1.9-1.3-1.9-1.3-1.9h-0.7h-4.6h0v4.1h5C20.1,22.9,20.9,22.6,20.9,20.7z"/>
			<path d="M33.2,22.9c-2.8,0-3.2,2.8-3.2,2.8h6C36,25.7,36,22.9,33.2,22.9z"/>
			<path d="M19.6,25.7h-5.3v4.9H19c0.1,0,0.2,0,0.3,0c0.8,0,2.2-0.2,2.2-2.4C21.5,25.7,19.6,25.7,19.6,25.7z"/>
			<path d="M24.8,0C11.1,0,0,11.1,0,24.8c0,13.7,11.1,24.8,24.8,24.8c13.7,0,24.8-11.1,24.8-24.8C49.7,11.1,38.5,0,24.8,0z
				 M29.2,16.6h7.5v2.3h-7.5V16.6z M25.4,28.4c0,5.6-5.8,5.4-5.8,5.4h-5.3h-0.2h-4V15.5h4h0.2h5.3c2.9,0,5.2,1.6,5.2,4.9
				c0,3.3-2.8,3.5-2.8,3.5C25.7,23.9,25.4,28.4,25.4,28.4z M39.5,28.1H30c0,3.4,3.2,3.2,3.2,3.2c3,0,2.9-2,2.9-2h3.2
				c0,5.2-6.3,4.9-6.3,4.9c-7.5,0-7-7-7-7s0-7,7-7C40.5,20.2,39.5,28.1,39.5,28.1z"/>
		</g>
	</g>
</g>
</svg>
