<?xml version="1.0" encoding="utf-8"?>
<!-- Generator: Adobe Illustrator 21.0.2, SVG Export Plug-In . SVG Version: 6.00 Build 0)  -->
<svg version="1.1" id="Ebene_1" xmlns="http://www.w3.org/2000/svg" xmlns:xlink="http://www.w3.org/1999/xlink" x="0px" y="0px"
	 viewBox="0 0 24 24" style="enable-background:new 0 0 24 24;" xml:space="preserve">
<style type="text/css">
	.st0{fill:#FFFFFF;}
</style>
<path class="st0" d="M16.5,6c0,0.3-0.2,0.6-0.6,0.7L8.4,8.4C8,8.4,7.6,8.2,7.5,7.8C7.4,7.5,7.7,7.1,8.1,7l7.6-1.7
	C16.1,5.2,16.5,5.6,16.5,6z"/>
<path class="st0" d="M8.1,4.6c3.3-0.7,3.4-0.6,3.8-1.3c0-0.2,0.3-0.3,0.5-0.3c1.1,0,0.8,1.9-0.8,2.3C11.1,5.4,8.4,6,8.4,6
	C7.9,6.1,7.5,5.8,7.5,5.3C7.5,5,7.7,4.7,8.1,4.6z"/>
<path class="st0" d="M13,20.7c-0.1,0.2-0.3,0.3-0.6,0.3h-0.8c-0.2,0-0.4-0.1-0.6-0.3l-1.1-1.2H14L13,20.7z"/>
<path class="st0" d="M11.2,13v0.5h1.5v-0.9c0-1.1,0.8-2,1.9-2.3l0.9-0.3c0.4-0.1,0.9,0.2,0.9,0.7c0,0.3-0.2,0.6-0.6,0.7L15,11.6
	c-0.5,0.1-0.9,0.6-0.9,1.2v0.7h1.6v2c0,1.3-1.2,2-1.5,3.3H9.8c-0.3-1.3-1.5-1.9-1.5-3.3v-2h1.6v-0.4c0-1.3-1.5-1.9-2.1-2.5
	c-0.2-0.2-0.3-0.3-0.3-0.5c0-0.3,0.2-0.6,0.6-0.7l7.6-1.7c0.4-0.1,0.9,0.2,0.9,0.7c0,0.3-0.2,0.6-0.6,0.7l-6.3,1.4
	C10.6,11.3,11.2,11.8,11.2,13z"/>
</svg>
