<?xml version="1.0" encoding="utf-8"?>
<!-- Generator: Adobe Illustrator 21.0.2, SVG Export Plug-In . SVG Version: 6.00 Build 0)  -->
<svg version="1.1" xmlns="http://www.w3.org/2000/svg" xmlns:xlink="http://www.w3.org/1999/xlink" x="0px" y="0px"
	 viewBox="0 0 931.8 931.8" style="enable-background:new 0 0 931.8 931.8;" xml:space="preserve">
<style type="text/css">
	.st0{display:none;}
	.st1{display:inline;fill:#FFFFFF;}
	.st2{fill:#FFFFFF;}
</style>
<g id="Capa_1" class="st0">
	<path class="st1" d="M-61.4-35.9V975.1h1081.4V-35.9H-61.4z M841.1,390.8c-6.4,13.1-16.5,23.6-28.8,30.9c-1.1,4.4-2.8,8.9-4.8,13.1
		c-14.8,30.3-48.9,46-86.1,43.3c-4.2,14-10.8,99.7-138.2,114.4c-28.2,3.2-62-3.2-83.3-14.4c0.2,12.4,0.6,46.4-26.5,62.7
		c-20.1,12.1-43.7,43.7-45.8,107.8v71.1c0,11.8-14.4,17.6-22.6,9l-34.8-36.7c-4.7-4.9-7.2-11.3-7.2-18.1V711c0,0-22,7.3-32.6-9.7
		c-3.1,0.8-6.3,1.6-9.5,2.2c-71.1,14.1-138-21.7-149.6-80.1c-2.1-10.1-2.2-20.2-0.8-30.1c-2.6-0.2-5.3-0.7-7.9-1.1
		c-40.4-8-67.2-49.3-66.4-97.2c-11.5-21.7-15.8-49.1-10.1-77.4c3.3-16.3,9.5-31.2,17.8-43.8c-1.4-31.6,18.3-61.2,49.3-78.5
		c-0.1-28.6,13.4-59.9,38.9-84.4c18-17.2,39.1-28.3,59.9-32.9c11.7-21.7,32.3-40.6,59.1-51.7c31.2-12.9,63.9-12.2,89.4-0.7
		c16.1-13.2,37.1-22.4,60.8-25.4c22.8-2.9,44.6,0.4,63,8.5c21.3-4.9,45.6-5.9,70.7-2c32,5,60.2,17.2,81,33.2
		c29.8,0.2,62.2,14.9,86.8,42.4c5.7,6.4,10.7,13.1,14.9,20c14.6,6.6,28.5,16.7,40.4,30c27.4,30.7,36.4,70.3,26.3,101.8
		C850.4,353,849.8,373,841.1,390.8z"/>
</g>
<g id="Capa_1_Kopie">
	<g>
		
			<ellipse transform="matrix(0.7071 -0.7071 0.7071 0.7071 -464.9525 352.7138)" class="st2" cx="193.3" cy="737.6" rx="34.7" ry="34.7"/>
		<path class="st2" d="M-61.4-35.9V975.1h1081.4V-35.9H-61.4z M536.8,670.4c-9.6,9.6-25.2,9.6-34.7,0l-53.5-53.5
			c-10.3-10.3-24.5-15.3-39.1-13.7c-14.5,1.6-27.3,9.6-35.2,21.8C274,782.3,259.3,797,254.5,801.8c-34.6,34.6-90.8,34.6-125.5,0
			c-34.6-34.6-34.6-90.9,0-125.5c4.8-4.8,19.5-19.5,176.8-119.8c12.3-7.9,20.3-20.7,21.9-35.2c1.6-14.5-3.4-28.7-13.7-39.1
			l-53.5-53.5c-4.6-4.6-7.2-10.9-7.2-17.4s2.6-12.8,7.2-17.4l56.5-56.5l276.3,276.3L536.8,670.4z M824.6,382.6l-195,195L353.3,301.3
			l195-195c9.6-9.6,25.2-9.6,34.7,0l25.1,25.1c7.2,7.2,9.2,18.2,5,27.5l-6.6,14.7l13.8-6.7c9.4-4.5,20.6-2.6,28,4.8l80,80
			c8.3,8.3,9.6,21.3,3,31.1l-52.4,78l77.5-52.7c9.8-6.6,22.8-5.4,31.2,2.9l36.9,36.9C834.2,357.5,834.2,373,824.6,382.6z"/>
	</g>
</g>
<g id="Capa_1_Kopie_Kopie" class="st0">
	<path class="st1" d="M-61.4-35.9V975.1h1081.4V-35.9H-61.4z M267.6,643.5c-6.9,5.8-15.3,8.6-23.7,8.6c-10.6,0-21.1-4.5-28.4-13.3
		L92.1,491c-11.5-13.7-11.5-33.7,0-47.4l123.4-148.4c13.1-15.7,36.4-17.9,52.1-4.8c15.7,13.1,17.9,36.4,4.8,52.1L168.7,467.3
		l103.6,124.1C285.4,607,283.3,630.4,267.6,643.5z M542.8,328.9L460.5,625c-4.6,16.4-19.4,27.1-35.6,27.1c-3.3,0-6.6-0.4-9.9-1.4
		c-19.7-5.5-31.2-25.9-25.8-45.6L471.5,309c5.5-19.7,25.9-31.2,45.6-25.8C536.7,288.8,548.3,309.2,542.8,328.9z M839.9,490.4
		L716.5,638.7c-7.3,8.8-17.9,13.3-28.5,13.3c-8.3,0-16.7-2.8-23.6-8.6c-15.7-13.1-17.9-36.4-4.8-52.1l103.7-124.7L659.7,342.7
		c-13.1-15.7-11-39,4.7-52.1c15.7-13.1,39-11,52.1,4.7L839.9,443C851.3,456.7,851.3,476.6,839.9,490.4z"/>
</g>
</svg>
