<?xml version="1.0" encoding="utf-8"?>
<!-- Generator: Adobe Illustrator 21.0.2, SVG Export Plug-In . SVG Version: 6.00 Build 0)  -->
<svg version="1.1" id="Ebene_1" xmlns="http://www.w3.org/2000/svg" xmlns:xlink="http://www.w3.org/1999/xlink" x="0px" y="0px"
	 viewBox="0 0 24 24" style="enable-background:new 0 0 24 24;" xml:space="preserve">
<style type="text/css">
	.st0{fill:#FFFFFF;}
</style>
<g>
	
		<ellipse transform="matrix(1 -7.997627e-03 7.997627e-03 1 -6.426058e-02 6.645519e-02)" class="st0" cx="8.3" cy="8.1" rx="1.5" ry="1.5"/>
	
		<ellipse transform="matrix(1 -7.492714e-03 7.492714e-03 1 -9.397589e-02 5.112217e-02)" class="st0" cx="6.8" cy="12.6" rx="1.5" ry="1.5"/>
	
		<ellipse transform="matrix(1 -7.488902e-03 7.488902e-03 1 -4.882962e-02 9.585509e-02)" class="st0" cx="12.8" cy="6.6" rx="1.5" ry="1.5"/>
	<path class="st0" d="M0,0v24h24V0H0z M3,12.1c0-5,4-9,8.9-9.1c3,0,5.4,1.3,6.1,3c-1.6,1.4-4.2,3.7-5.3,4.7
		c-1.5,1.4-1.6,2.3-1.9,3.8c-2,0.2-2.8,1.6-3.3,2.4c-0.7,1.1-1.2,1.2-2.4,0.9C3.8,16.2,3,14.3,3,12.1z M6,19.4
		c3.4,0.3,2.2-3.4,5.4-3.4l1.4,1.2C13.1,21.3,8,22.2,6,19.4z M13,20.9L13,20.9c0.6-0.7,1.3-1.8,1.3-3.5c1.5-0.6,2.4-0.9,3.4-2.4
		C19.8,17.7,16.9,20.5,13,20.9z M20.9,6.7c0,0-3.3,5.6-4.4,7.3c-0.8,1.3-1.3,1.4-3,2.1l-1.3-1c0.4-1.8,0.4-2.3,1.5-3.3
		c1.5-1.4,6.4-5.6,6.4-5.6C20.6,5.8,21.2,6.3,20.9,6.7z"/>
</g>
</svg>
