<?xml version="1.0" encoding="utf-8"?>
<!-- Generator: Adobe Illustrator 21.0.2, SVG Export Plug-In . SVG Version: 6.00 Build 0)  -->
<svg version="1.1" id="Ebene_1" xmlns="http://www.w3.org/2000/svg" xmlns:xlink="http://www.w3.org/1999/xlink" x="0px" y="0px"
	 viewBox="0 0 24 24" style="enable-background:new 0 0 24 24;" xml:space="preserve">
<style type="text/css">
	.st0{fill:#FFFFFF;}
</style>
<path class="st0" d="M6,19.4c3.4,0.3,2.2-3.4,5.4-3.4l1.4,1.2C13.1,21.3,8,22.2,6,19.4z M16.5,14c1.1-1.7,4.4-7.3,4.4-7.3
	c0.3-0.5-0.3-1-0.7-0.6c0,0-4.9,4.3-6.4,5.6c-1.1,1.1-1.2,1.6-1.5,3.3l1.3,1C15.2,15.5,15.7,15.4,16.5,14z M7.5,16.9
	c0.5-0.9,1.3-2.2,3.3-2.4c0.3-1.6,0.5-2.5,1.9-3.8c1-1,3.7-3.3,5.3-4.7c-0.7-1.7-3.1-3-6.1-3C7,3,3,7.1,3,12.1
	c0,2.2,0.8,4.2,2.1,5.7C6.3,18.1,6.9,18.1,7.5,16.9z M12.8,5.1c0.8,0,1.5,0.7,1.5,1.5c0,0.8-0.7,1.5-1.5,1.5c-0.8,0-1.5-0.7-1.5-1.5
	C11.3,5.8,11.9,5.1,12.8,5.1z M8.3,6.6c0.8,0,1.5,0.7,1.5,1.5c0,0.8-0.7,1.5-1.5,1.5c-0.8,0-1.5-0.7-1.5-1.5
	C6.8,7.3,7.4,6.6,8.3,6.6z M6.8,11.1c0.8,0,1.5,0.7,1.5,1.5c0,0.8-0.7,1.5-1.5,1.5c-0.8,0-1.5-0.7-1.5-1.5
	C5.3,11.8,5.9,11.1,6.8,11.1z M14.3,17.5c0,1.7-0.7,2.8-1.3,3.4l0,0c3.9-0.4,6.8-3.2,4.7-5.9C16.7,16.6,15.8,16.9,14.3,17.5z"/>
</svg>
