<?xml version="1.0" encoding="utf-8"?>
<!-- Generator: Adobe Illustrator 21.0.2, SVG Export Plug-In . SVG Version: 6.00 Build 0)  -->
<svg version="1.1" id="Capa_1" xmlns="http://www.w3.org/2000/svg" xmlns:xlink="http://www.w3.org/1999/xlink" x="0px" y="0px"
	 viewBox="0 0 49.7 49.7" style="enable-background:new 0 0 49.7 49.7;" xml:space="preserve">
<style type="text/css">
	.st0{display:none;}
	.st1{display:inline;}
</style>
<g class="st0">
	<g class="st1">
		<g>
			<path d="M24.1,20.5c-2.3-4.1-4.8-7.4-4.9-7.7c-3.7,1.8-6.5,5.2-7.4,9.3C12.1,22.1,17.7,22.2,24.1,20.5z"/>
			<path d="M21.6,11.9C21.6,11.9,21.6,11.9,21.6,11.9C21.6,11.9,21.6,11.9,21.6,11.9L21.6,11.9z"/>
			<path d="M33.6,14.8c-2.3-2.1-5.4-3.3-8.8-3.3c-1.1,0-2.1,0.1-3.1,0.4c0.2,0.3,2.7,3.6,5,7.8C31.7,17.8,33.6,14.9,33.6,14.8z"/>
			<path d="M27.1,27c-7.9,2.7-10.4,8.3-10.4,8.3c2.3,1.8,5.1,2.8,8.2,2.8c1.8,0,3.6-0.4,5.2-1.1C29.8,35.9,29.1,31.8,27.1,27
				C27.2,27,27.1,27,27.1,27z"/>
			<path d="M25.7,24.9c0.2-0.1,0.4-0.1,0.5-0.2c-0.3-0.8-0.7-1.5-1.1-2.3c-6.9,2.1-13.4,1.9-13.7,1.9c0,0.1,0,0.3,0,0.4
				c0,3.4,1.3,6.5,3.4,8.9l0,0C14.9,33.7,18.6,27.3,25.7,24.9z"/>
			<path d="M24.8,0C11.1,0,0,11.1,0,24.8c0,13.7,11.1,24.8,24.8,24.8c13.7,0,24.8-11.1,24.8-24.8C49.7,11.1,38.5,0,24.8,0z M40.1,28
				c-0.2,1-0.5,2-0.9,2.9c-0.4,0.9-0.9,1.8-1.4,2.6c-0.6,0.8-1.2,1.6-1.9,2.3c-0.7,0.7-1.5,1.3-2.3,1.9c-0.8,0.6-1.7,1-2.6,1.4
				C30,39.6,29,39.9,28,40.1c-1,0.2-2.1,0.3-3.1,0.3c-1.1,0-2.1-0.1-3.1-0.3c-1-0.2-2-0.5-2.9-0.9c-0.9-0.4-1.8-0.9-2.6-1.4
				c-0.8-0.6-1.6-1.2-2.3-1.9c-0.7-0.7-1.3-1.5-1.9-2.3c-0.6-0.8-1-1.7-1.4-2.6C10.1,30,9.8,29,9.5,28c-0.2-1-0.3-2.1-0.3-3.1
				c0-1.1,0.1-2.1,0.3-3.1c0.2-1,0.5-2,0.9-2.9c0.4-0.9,0.9-1.8,1.4-2.6c0.6-0.8,1.2-1.6,1.9-2.3c0.7-0.7,1.5-1.3,2.3-1.9
				c0.8-0.6,1.7-1,2.6-1.4c0.9-0.4,1.9-0.7,2.9-0.9c1-0.2,2.1-0.3,3.1-0.3c1.1,0,2.1,0.1,3.1,0.3c1,0.2,2,0.5,2.9,0.9
				c0.9,0.4,1.8,0.9,2.6,1.4c0.8,0.6,1.6,1.2,2.3,1.9c0.7,0.7,1.3,1.5,1.9,2.3c0.6,0.8,1,1.7,1.4,2.6c0.4,0.9,0.7,1.9,0.9,2.9
				c0.2,1,0.3,2.1,0.3,3.1C40.4,25.9,40.3,26.9,40.1,28z"/>
			<path d="M29.7,26.4c1.7,4.8,2.5,8.7,2.6,9.5c3-2,5.1-5.2,5.7-8.9C37.7,26.9,34,25.7,29.7,26.4z"/>
			<path d="M27.7,21.6c0.3,0.6,0.6,1.3,0.9,1.9c0.1,0.2,0.2,0.5,0.3,0.7c4.6-0.6,9.1,0.4,9.3,0.4c0-3.2-1.2-6.1-3-8.3
				C35.1,16.4,33,19.5,27.7,21.6z"/>
		</g>
	</g>
</g>
<g class="st0">
	<g class="st1">
		<g>
			<path d="M20.9,20.7c0-1.9-1.3-1.9-1.3-1.9h-0.7h-4.6h0v4.1h5C20.1,22.9,20.9,22.6,20.9,20.7z"/>
			<path d="M33.2,22.9c-2.8,0-3.2,2.8-3.2,2.8h6C36,25.7,36,22.9,33.2,22.9z"/>
			<path d="M19.6,25.7h-5.3v4.9H19c0.1,0,0.2,0,0.3,0c0.8,0,2.2-0.2,2.2-2.4C21.5,25.7,19.6,25.7,19.6,25.7z"/>
			<path d="M24.8,0C11.1,0,0,11.1,0,24.8c0,13.7,11.1,24.8,24.8,24.8c13.7,0,24.8-11.1,24.8-24.8C49.7,11.1,38.5,0,24.8,0z
				 M29.2,16.6h7.5v2.3h-7.5V16.6z M25.4,28.4c0,5.6-5.8,5.4-5.8,5.4h-5.3h-0.2h-4V15.5h4h0.2h5.3c2.9,0,5.2,1.6,5.2,4.9
				c0,3.3-2.8,3.5-2.8,3.5C25.7,23.9,25.4,28.4,25.4,28.4z M39.5,28.1H30c0,3.4,3.2,3.2,3.2,3.2c3,0,2.9-2,2.9-2h3.2
				c0,5.2-6.3,4.9-6.3,4.9c-7.5,0-7-7-7-7s0-7,7-7C40.5,20.2,39.5,28.1,39.5,28.1z"/>
		</g>
	</g>
</g>
<g>
	<path d="M46.5,11.9c-2.2-3.8-5.3-6.9-9.1-9.1c-3.8-2.2-8-3.4-12.5-3.4c-4.5,0-8.7,1.1-12.5,3.4C8.4,5,5.4,8.1,3.2,11.9
		c-2.2,3.8-3.4,8-3.4,12.5c0,5.4,1.6,10.3,4.8,14.7c3.2,4.4,7.3,7.4,12.3,9c0.6,0.1,1,0,1.3-0.2c0.3-0.3,0.4-0.6,0.4-1
		c0-0.1,0-0.7,0-1.8c0-1.1,0-2.1,0-2.9l-0.7,0.1c-0.5,0.1-1.1,0.1-1.8,0.1c-0.7,0-1.5-0.1-2.3-0.2c-0.8-0.1-1.5-0.5-2.2-1
		c-0.7-0.5-1.1-1.2-1.4-2l-0.3-0.7c-0.2-0.5-0.6-1.1-1-1.7c-0.5-0.6-0.9-1-1.4-1.2l-0.2-0.2c-0.2-0.1-0.3-0.2-0.4-0.4
		c-0.1-0.2-0.2-0.3-0.3-0.5c-0.1-0.2,0-0.3,0.2-0.4c0.2-0.1,0.5-0.1,0.9-0.1l0.7,0.1c0.4,0.1,1,0.3,1.6,0.8c0.6,0.4,1.2,1,1.6,1.7
		c0.5,0.9,1.1,1.6,1.8,2c0.7,0.5,1.4,0.7,2.1,0.7c0.7,0,1.3-0.1,1.9-0.2c0.5-0.1,1-0.3,1.5-0.5c0.2-1.5,0.7-2.6,1.6-3.4
		c-1.2-0.1-2.3-0.3-3.3-0.6c-1-0.3-2-0.7-3.1-1.3c-1.1-0.6-1.9-1.3-2.6-2.2c-0.7-0.9-1.3-2-1.7-3.4c-0.4-1.4-0.7-3-0.7-4.9
		c0-2.6,0.9-4.9,2.6-6.7c-0.8-2-0.7-4.2,0.2-6.6c0.6-0.2,1.6,0,2.8,0.4c1.2,0.5,2.1,0.9,2.7,1.3c0.6,0.3,1,0.6,1.4,0.9
		c2-0.6,4.1-0.8,6.2-0.8s4.2,0.3,6.3,0.8l1.2-0.8c0.8-0.5,1.8-1,3-1.4c1.2-0.4,2-0.6,2.6-0.4c1,2.5,1.1,4.7,0.3,6.6
		c1.7,1.8,2.6,4.1,2.6,6.7c0,1.8-0.2,3.5-0.7,4.9c-0.4,1.4-1,2.6-1.7,3.4c-0.7,0.9-1.6,1.6-2.6,2.2c-1.1,0.6-2.1,1-3.1,1.3
		c-1,0.3-2.1,0.5-3.3,0.6c1.1,1,1.7,2.5,1.7,4.6V47c0,0.4,0.1,0.7,0.4,1c0.3,0.3,0.7,0.3,1.3,0.2c5-1.7,9.1-4.7,12.3-9
		c3.2-4.4,4.8-9.2,4.8-14.7C49.8,19.9,48.7,15.7,46.5,11.9z"/>
</g>
<path d="M-0.2-0.2v50h50v-50H-0.2z M24.8,49.3c-13.5,0-24.5-11-24.5-24.5s11-22.5,24.5-22.5s24.5,9,24.5,22.5S38.4,49.3,24.8,49.3z"
	/>
</svg>
