<?xml version="1.0" encoding="utf-8"?>
<!-- Generator: Adobe Illustrator 21.0.2, SVG Export Plug-In . SVG Version: 6.00 Build 0)  -->
<svg version="1.1" id="Ebene_1" xmlns="http://www.w3.org/2000/svg" xmlns:xlink="http://www.w3.org/1999/xlink" x="0px" y="0px"
	 viewBox="0 0 24 24" style="enable-background:new 0 0 24 24;" xml:space="preserve">
<g>
	<path d="M5.3,14.7h1.3v-2h10.7v2h1.3v-6H5.3V14.7z M17.7,9.3c0.2,0,0.3,0.1,0.3,0.3c0,0.2-0.1,0.3-0.3,0.3c-0.2,0-0.3-0.1-0.3-0.3
		C17.3,9.5,17.5,9.3,17.7,9.3z"/>
	<path d="M8,18.7h8V14H8V18.7z M9.3,15.3h5.3V16H9.3V15.3z M9.3,16.7h4v0.7h-4V16.7z"/>
	<rect x="8" y="5.3" width="8" height="2"/>
	<path d="M0,0v24h24V0H0z M20,16h-2.7v4H6.7v-4H4V7.3h2.7V4h10.7v3.3H20V16z"/>
</g>
</svg>
