<?xml version="1.0" encoding="utf-8"?>
<!-- Generator: Adobe Illustrator 21.0.2, SVG Export Plug-In . SVG Version: 6.00 Build 0)  -->
<svg version="1.1" id="Ebene_1" xmlns="http://www.w3.org/2000/svg" xmlns:xlink="http://www.w3.org/1999/xlink" x="0px" y="0px"
	 viewBox="0 0 24 24" style="enable-background:new 0 0 24 24;" xml:space="preserve">
<path d="M24,0H0v24h24V0z M16.7,14.7v-2h-5.2c-0.3-0.2-0.6-0.5-0.8-0.7c0.3-0.2,0.6-0.4,0.9-0.7h5.2v-2L20,12L16.7,14.7z M9.4,12.8
	c1.5,0.9,2.7,2.2,3.7,4l1.7-1L14.1,20l-3.9-1.6l1.8-1c-1.1-1.9-2.5-3.2-4.2-3.9C8.3,13.3,8.9,13,9.4,12.8z M14.1,4l0.8,4.2l-1.7-1
	c-2,3.6-5.1,5.4-9.1,5.4v-1.3c3.4,0,6.2-1.6,7.9-4.7l-1.8-1L14.1,4z"/>
</svg>
