<?xml version="1.0" encoding="utf-8"?>
<!-- Generator: Adobe Illustrator 21.0.2, SVG Export Plug-In . SVG Version: 6.00 Build 0)  -->
<svg version="1.1" id="Ebene_1" xmlns="http://www.w3.org/2000/svg" xmlns:xlink="http://www.w3.org/1999/xlink" x="0px" y="0px"
	 viewBox="0 0 24 24" style="enable-background:new 0 0 24 24;" xml:space="preserve">
<style type="text/css">
	.st0{fill:#FFFFFF;}
</style>
<path class="st0" d="M8,4.5c0.4,0,0.7,0.3,0.7,0.8S8.4,6,8,6C7.6,6,7.3,5.7,7.3,5.3S7.6,4.5,8,4.5z M19.2,11.2
	c0.4,0,0.8,0.3,0.8,0.8s-0.3,0.8-0.8,0.8s-0.8-0.3-0.8-0.8C18.5,11.6,18.8,11.2,19.2,11.2z M8,18c0.4,0,0.7,0.3,0.7,0.8
	S8.4,19.5,8,19.5c-0.4,0-0.8-0.3-0.8-0.8S7.6,18,8,18z M8,3C6.8,3,5.8,4,5.8,5.3s1,2.2,2.3,2.2s2.2-1,2.2-2.2S9.2,3,8,3z M19.2,9.8
	c-1.2,0-2.2,1-2.2,2.2s1,2.2,2.2,2.2s2.2-1,2.2-2.2S20.5,9.8,19.2,9.8z M8,16.5c-1.2,0-2.3,1-2.3,2.2S6.8,21,8,21
	c1.2,0,2.2-1,2.2-2.2S9.2,16.5,8,16.5z M11.4,3.8l0.3,0c3.2,0,6,1.8,7.3,4.5c-0.5,0-1,0.2-1.5,0.4c-1.2-2-3.3-3.4-5.9-3.4
	C11.8,4.7,11.6,4.2,11.4,3.8z M19.1,15.7c-1.4,2.7-4.1,4.5-7.3,4.5l-0.3,0c0.2-0.5,0.3-1,0.3-1.5c2.5,0,4.7-1.4,5.9-3.4
	C18.1,15.6,18.6,15.7,19.1,15.7z M4.9,16.6C4,15.3,3.5,13.7,3.5,12S4,8.7,4.9,7.4C5.2,7.8,5.6,8.2,6,8.4c-0.7,1-1,2.3-1,3.6
	s0.4,2.5,1,3.6C5.6,15.8,5.2,16.2,4.9,16.6z"/>
</svg>
